<svg width="512" height="512" viewBox="0 0 941 941" fill="none" xmlns="http://www.w3.org/2000/svg">
  <rect width="941" height="941" rx="180" fill="#1a2e20"/>
  <path fill-rule="evenodd" clip-rule="evenodd" d="M736.441 275.985L735.687 275.231H729.154L728.149 276.237L727.646 743.595H205.733L204.979 742.841V727.756L203.974 726.751H197.944L196.687 728.259V751.388L197.441 752.143L735.938 751.891L736.692 740.829L736.441 275.985ZM196.687 266.432L198.195 267.438L204.226 267.186L204.979 265.929L205.482 208.107H361.277L362.282 207.101V200.062L361.277 199.056H197.692L196.687 200.062L196.436 210.369L196.687 266.432ZM160.503 276.488L160 710.661L160.754 711.918L232.369 711.415V543.227L322.077 466.297L323.585 467.303L415.303 588.731L499.231 702.365L503.503 706.639L511.544 711.918L618.59 711.667L618.841 261.655L779.913 261.153L780.164 189L372.082 189.251L371.831 260.398L372.585 261.153H530.892L545.969 261.907L545.467 655.855L484.154 570.378L375.349 421.799L538.431 278.248L538.682 276.237H451.236L233.123 465.04L232.369 464.789V276.991L231.364 275.985L160.503 276.488Z" fill="white"/>
</svg>
