<?xml version="1.0" encoding="UTF-8"?>
<svg xmlns="http://www.w3.org/2000/svg" width="3633" height="2795" viewBox="0 0 3633 2795">
  <path d="M 3432 2520 L 3364 2660 L 3333 2732 L 3371 2733 L 3399 2679 L 3506 2679 L 3533 2733 L 3571 2733 L 3570 2724 L 3477 2523 L 3472 2519 Z
M 3451 2560 L 3455 2562 L 3491 2642 L 3488 2645 L 3414 2644 Z
M 2930 2519 L 2927 2579 L 2928 2732 L 2963 2734 L 2967 2731 L 2968 2659 L 3014 2622 L 3096 2733 L 3141 2733 L 3140 2725 L 3045 2599 L 3048 2593 L 3132 2525 L 3133 2520 L 3079 2520 L 2969 2613 L 2967 2521 Z
M 2508 2519 L 2505 2523 L 2506 2731 L 2510 2734 L 2541 2734 L 2545 2730 L 2547 2646 L 2610 2646 L 2673 2734 L 2712 2734 L 2713 2725 L 2654 2645 L 2686 2630 L 2705 2605 L 2708 2570 L 2705 2558 L 2697 2545 L 2679 2529 L 2655 2520 Z
M 2545 2555 L 2645 2554 L 2663 2565 L 2668 2576 L 2667 2590 L 2657 2604 L 2637 2612 L 2547 2612 Z
M 1685 2520 L 1684 2551 L 1688 2554 L 1766 2555 L 1766 2730 L 1769 2734 L 1804 2733 L 1806 2555 L 1883 2554 L 1886 2551 L 1885 2520 Z
M 560 2520 L 464 2726 L 465 2733 L 504 2732 L 527 2682 L 531 2679 L 634 2679 L 662 2733 L 700 2733 L 701 2725 L 604 2522 L 600 2519 Z
M 581 2562 L 619 2641 L 617 2645 L 544 2643 Z
M 62 2519 L 61 2732 L 95 2734 L 99 2731 L 100 2660 L 145 2623 L 227 2734 L 269 2734 L 269 2724 L 174 2599 L 264 2525 L 265 2521 L 211 2520 L 101 2613 L 100 2523 L 96 2519 Z
M 2098 2519 L 2096 2732 L 2284 2733 L 2287 2730 L 2287 2701 L 2282 2697 L 2140 2698 L 2135 2694 L 2135 2644 L 2138 2639 L 2243 2639 L 2247 2635 L 2247 2611 L 2243 2605 L 2137 2604 L 2136 2556 L 2280 2554 L 2284 2551 L 2284 2522 L 2280 2519 Z
M 1303 2519 L 1300 2523 L 1301 2732 L 1486 2733 L 1489 2704 L 1483 2697 L 1339 2695 L 1339 2643 L 1342 2639 L 1441 2639 L 1445 2636 L 1445 2608 L 1440 2604 L 1341 2604 L 1339 2556 L 1480 2554 L 1485 2549 L 1484 2521 L 1405 2518 Z
M 1088 2519 L 953 2518 L 916 2519 L 913 2522 L 914 2733 L 949 2733 L 952 2730 L 952 2642 L 955 2639 L 1048 2639 L 1053 2636 L 1053 2608 L 1050 2605 L 955 2605 L 952 2602 L 952 2557 L 955 2554 L 1087 2554 L 1091 2549 L 1091 2523 Z
M 2881 407 L 2878 404 L 2852 404 L 2848 408 L 2846 2267 L 769 2267 L 766 2264 L 766 2204 L 762 2200 L 738 2200 L 733 2206 L 733 2298 L 736 2301 L 2879 2300 L 2882 2256 Z
M 733 369 L 739 373 L 763 372 L 766 367 L 768 137 L 1388 137 L 1392 133 L 1392 105 L 1388 101 L 737 101 L 733 105 L 732 146 Z
M 589 409 L 587 2136 L 590 2141 L 875 2139 L 875 1470 L 1232 1164 L 1238 1168 L 1603 1651 L 1937 2103 L 1954 2120 L 1986 2141 L 2412 2140 L 2413 350 L 3054 348 L 3055 61 L 1431 62 L 1430 345 L 1433 348 L 2063 348 L 2123 351 L 2121 1918 L 1877 1578 L 1444 987 L 2093 416 L 2094 408 L 1746 408 L 878 1159 L 875 1158 L 875 411 L 871 407 Z" fill="currentColor" fill-rule="evenodd"/>
</svg>