<svg width="753" height="512" viewBox="0 0 753 512" fill="none" xmlns="http://www.w3.org/2000/svg">
<path d="M329.581 348.345C320.901 361.675 308.151 367.345 293.352 369.055C278.362 370.785 265.691 366.825 257.012 353.465C246.952 337.965 236.811 322.525 226.531 307.175C222.491 301.145 217.961 295.455 213.651 289.615C213.211 289.855 212.771 290.095 212.331 290.345C213.321 292.645 214.281 294.955 215.291 297.245C223.381 315.735 230.451 334.565 234.281 354.465C234.941 357.895 235.501 361.355 235.761 364.835C237.161 383.465 230.391 393.855 212.831 400.495C199.221 405.645 185.211 406.055 170.981 404.285C169.851 404.145 168.731 403.985 167.091 403.775C165.321 419.465 155.491 430.805 146.941 442.815C140.561 451.775 140.821 451.515 147.131 460.275C150.971 465.595 154.691 471.415 156.651 477.585C161.231 491.985 153.281 505.235 138.701 509.225C123.151 513.485 107.621 512.395 92.3215 508.255C24.9715 490.015 4.79148 425.975 17.2115 376.435C17.6115 374.855 17.3615 372.215 16.3215 371.295C1.48149 358.025 -1.90851 340.815 0.901487 322.465C8.47149 273.095 31.7715 232.605 71.6515 202.105C74.9615 199.575 76.3615 197.385 75.7315 193.105C74.4015 184.025 77.3615 175.625 81.4415 167.675C89.8215 151.345 102.251 138.335 116.581 127.275C145.381 105.025 177.391 89.1751 212.911 80.6651C214.401 80.3051 216.361 78.9451 216.811 77.6151C221.061 64.9551 229.631 55.5051 239.421 47.0851C263.231 26.6151 291.371 15.0151 321.621 8.1351C374.281 -3.8549 426.691 -2.6349 478.672 12.0851C492.182 15.9151 505.031 21.4451 515.841 30.8051C522.941 36.9551 528.301 44.2151 530.171 53.6251C530.651 56.0251 531.431 57.3251 534.301 57.4151C568.831 58.4851 599.381 71.3551 627.951 89.6751C644.701 100.415 660.111 112.855 672.541 128.575C679.271 137.085 684.961 146.265 682.481 157.805C681.461 162.555 679.041 167.005 677.471 171.045C685.481 176.365 694.201 181.055 701.631 187.285C721.191 203.655 733.381 225.185 741.671 248.935C749.931 272.595 753.901 296.965 751.481 322.105C750.201 335.335 747.071 347.995 739.791 359.385C738.811 360.915 738.271 363.115 738.441 364.915C743.051 415.625 720.941 453.655 682.041 483.585C669.471 493.255 655.331 499.975 639.381 501.775C634.201 502.355 628.651 502.085 623.581 500.895C610.581 497.845 603.501 485.265 606.281 470.885C608.812 457.785 615.521 447.025 625.981 438.835C628.871 436.575 629.381 434.675 627.641 431.835C624.701 427.015 621.761 422.185 618.681 417.445C617.321 415.355 615.591 413.525 614.101 411.515C607.551 402.685 600.422 394.085 602.281 381.855C601.251 381.855 600.711 381.715 600.301 381.875C583.311 388.605 567.561 384.015 552.231 376.465C545.971 373.375 540.011 369.675 533.791 366.485C532.201 365.675 530.061 365.255 528.321 365.535C507.711 368.835 487.521 367.605 467.741 360.665C454.641 356.065 444.042 348.655 438.262 334.475C428.492 357.645 408.891 364.995 387.031 367.785C365.211 370.565 344.681 367.705 329.591 348.335L329.581 348.345ZM221.781 79.2351C238.421 78.6651 250.271 85.5351 261.021 95.0651C278.241 110.335 290.681 129.195 301.401 149.245C318.811 181.815 329.892 216.625 336.542 252.845C341.871 281.915 343.771 310.995 334.191 339.735C333.711 341.175 334.342 343.345 335.142 344.805C339.122 352.065 345.721 356.295 353.281 358.865C372.711 365.475 391.821 363.455 410.181 355.135C428.151 346.985 436.012 332.415 435.161 312.535C434.721 302.085 434.811 291.545 435.621 281.115C437.581 255.795 443.811 231.265 449.561 206.605C453.861 188.175 455.501 169.145 458.922 150.485C462.802 129.315 467.862 108.415 478.852 89.5551C487.181 75.2551 498.571 64.4851 514.871 59.7951C518.031 58.8851 521.302 58.3251 524.901 57.5151C523.061 48.3351 518.461 41.1251 511.512 35.2751C502.161 27.4151 491.211 22.6051 479.751 18.9151C453.711 10.5351 426.841 6.9951 399.602 6.3751C359.721 5.4751 320.891 11.1051 283.971 26.8751C264.331 35.2651 246.441 46.4151 232.601 63.0451C228.761 67.6651 225.861 73.0651 221.791 79.2251L221.781 79.2351ZM531.931 62.3151C531.301 78.1051 528.031 91.4251 520.141 102.835C512.221 114.295 503.542 125.335 494.262 135.725C471.341 161.375 457.711 190.635 454.501 225.235C451.691 255.535 446.941 285.655 442.991 315.845C441.301 328.745 444.742 339.775 455.572 347.395C460.661 350.975 466.542 353.775 472.441 355.825C487.281 360.955 502.721 361.885 518.301 360.825C520.351 360.685 522.381 360.195 525.091 359.755C517.932 350.945 517.071 341.595 519.081 331.745C519.781 328.325 520.671 324.935 521.701 321.605C530.341 293.795 542.861 267.775 558.121 243.025C570.331 223.215 584.311 204.845 602.371 189.965C619.851 175.565 639.151 165.925 662.731 168.645C670.761 169.575 671.811 168.985 675.101 161.555C677.521 156.095 678.081 150.385 675.281 145.125C672.331 139.595 669.121 133.965 664.941 129.365C638.101 99.8351 605.361 79.4951 566.921 68.8051C555.811 65.7151 544.181 64.5351 531.921 62.3251L531.931 62.3151ZM82.1515 195.095C108.891 185.415 131.561 193.905 152.661 208.775C169.231 220.455 181.671 236.065 192.321 253.165C195.391 258.085 198.051 263.345 201.671 267.805C210.781 279.025 221.061 289.365 229.531 301.025C240.571 316.215 250.432 332.275 260.572 348.105C267.262 358.535 276.371 364.115 288.911 363.275C302.901 362.335 315.461 358.255 323.632 345.815C324.741 344.125 325.371 341.465 324.941 339.535C321.121 322.365 316.382 305.375 313.132 288.105C308.272 262.295 305.231 236.125 299.901 210.425C291.621 170.485 271.291 138.085 236.561 115.425C226.051 108.565 215.951 100.985 215.061 86.5251C212.561 87.0751 210.621 87.4151 208.721 87.9351C176.891 96.6851 147.911 111.255 121.691 131.215C108.491 141.265 97.0315 153.105 88.5815 167.525C83.7415 175.785 80.3215 184.525 82.1615 195.095H82.1515ZM20.5315 367.005C31.7815 353.515 37.2615 349.055 48.1115 347.155C56.2415 345.735 64.6815 344.725 72.8715 345.235C101.041 346.995 126.251 357.175 148.801 374.005C156.061 379.425 162.561 385.545 165.691 394.505C166.161 395.845 168.041 397.285 169.501 397.605C184.561 400.835 199.331 399.605 213.531 393.595C226.111 388.275 231.481 378.865 229.801 365.345C229.061 359.405 228.121 353.455 226.691 347.655C220.121 320.975 208.681 296.225 196.121 271.955C195.531 270.805 194.631 269.685 193.591 268.925C186.091 263.415 178.801 257.565 170.911 252.665C155.331 242.975 137.601 238.665 120.221 233.515C103.581 228.585 87.6515 222.375 78.6215 205.875C78.5115 205.665 78.0315 205.655 77.6715 205.525C77.2615 205.725 76.7815 205.895 76.3815 206.165C75.4115 206.805 74.4615 207.475 73.5315 208.175C51.2515 224.975 35.1615 246.745 22.8915 271.535C14.2615 288.975 8.25149 307.255 6.60149 326.735C5.31149 341.975 8.57149 355.795 20.5215 367.005H20.5315ZM735.261 353.705C735.871 353.675 736.471 353.655 737.081 353.625C739.311 346.565 742.541 339.665 743.611 332.435C750.821 284.115 739.031 240.695 708.391 202.635C699.741 191.885 688.721 183.745 675.831 178.485C674.141 177.795 671.231 177.635 670.001 178.625C652.081 192.975 634.141 207.305 616.621 222.135C590.651 244.115 570.581 270.845 554.201 300.575C544.232 318.665 539.611 338.285 535.871 358.255C535.701 359.155 536.701 360.735 537.601 361.305C549.291 368.775 561.421 375.835 575.181 378.125C588.021 380.265 600.831 379.525 609.731 367.375C611.271 365.275 613.482 363.595 615.591 361.995C632.031 349.515 650.622 341.655 670.591 336.955C677.052 335.435 683.641 334.135 690.241 333.625C708.661 332.195 725.831 334.165 735.261 353.705ZM123.611 505.975C123.841 505.555 124.071 505.135 124.301 504.715C123.241 503.505 122.161 502.305 121.131 501.065C114.161 492.635 112.561 483.265 116.451 473.065C119.451 465.185 124.821 459.205 131.771 454.525C133.221 453.545 134.611 452.255 135.561 450.805C140.721 442.905 145.981 435.065 150.711 426.905C154.351 420.625 157.401 413.985 160.421 407.375C161.831 404.285 160.781 402.315 157.061 401.275C136.181 395.465 115.071 390.945 93.4115 389.405C82.4615 388.625 71.5015 388.025 60.5515 387.155C47.7215 386.145 35.3615 383.175 23.8815 377.145C16.3915 395.255 17.9215 437.535 38.9915 465.435C60.2915 493.635 89.3715 505.285 123.601 505.975H123.611ZM732.431 367.735C719.371 377.795 705.691 377.205 691.661 373.985C688.581 373.275 685.501 372.585 682.401 371.955C660.261 367.495 638.461 368.335 616.941 375.655C608.121 378.655 606.781 381.535 609.321 391.755C610.401 396.085 613.461 399.995 615.931 403.905C621.931 413.425 628.051 422.875 634.301 432.235C635.041 433.345 636.821 434.145 638.221 434.345C644.571 435.245 648.581 438.055 649.601 444.375C650.261 448.445 649.691 452.965 648.571 456.975C647.871 459.465 645.112 461.385 643.271 463.565C641.161 461.705 638.461 460.205 637.081 457.915C635.232 454.845 634.381 451.165 633.141 447.725C632.561 446.105 632.091 444.455 631.351 442.105C621.301 450.455 614.711 459.925 612.281 471.975C609.521 485.735 617.542 495.575 631.581 496.065C643.091 496.465 653.641 493.045 663.541 487.705C696.321 470.025 718.131 443.185 729.031 407.625C732.901 395.005 734.661 382.045 732.441 367.745L732.431 367.735ZM328.691 332.595C329.301 332.595 329.911 332.595 330.531 332.605C331.732 325.675 333.352 318.795 334.042 311.815C336.422 288.025 333.202 264.645 328.012 241.485C318.612 199.545 303.901 159.795 278.822 124.465C269.431 111.225 258.871 99.0351 244.611 90.6851C237.711 86.6451 230.371 84.5751 222.121 85.9051C221.291 92.8851 224.331 97.9251 229.091 101.875C234.721 106.545 240.651 110.855 246.591 115.145C267.401 130.205 283.351 149.145 293.861 172.725C303.851 195.165 308.871 218.855 312.691 242.915C316.661 267.895 320.572 292.885 324.721 317.835C325.551 322.845 327.352 327.685 328.702 332.605L328.691 332.595ZM528.271 354.545C529.031 354.415 529.801 354.295 530.561 354.165C531.061 351.965 531.551 349.755 532.081 347.555C534.181 338.845 535.501 329.855 538.551 321.485C550.571 288.445 569.541 259.465 594.441 234.975C612.181 217.535 632.151 202.365 651.141 186.215C655.232 182.735 659.431 179.375 663.581 175.955C663.381 175.335 663.191 174.705 662.991 174.085C656.811 174.445 650.511 174.165 644.481 175.285C622.961 179.305 606.862 192.505 592.591 207.965C562.761 240.295 542.911 278.525 528.651 319.785C526.141 327.035 525.201 335.005 524.751 342.715C524.521 346.575 527.021 350.595 528.281 354.545H528.271ZM158.111 395.155C158.561 394.615 159.011 394.065 159.471 393.525C155.561 389.405 152.061 384.775 147.681 381.235C128.081 365.415 105.581 355.905 80.7415 352.055C69.3015 350.285 57.8215 350.315 46.6115 353.725C37.5215 356.495 30.5315 361.835 25.8315 371.285C30.5115 373.315 34.4215 375.855 38.6815 376.705C49.0815 378.785 59.5915 380.725 70.1515 381.575C92.5415 383.365 115.011 384.375 136.941 389.785C144.011 391.525 151.051 393.355 158.111 395.145V395.155ZM526.711 64.3151C510.821 65.2051 497.051 73.6651 487.901 86.9351C475.401 105.055 470.072 125.805 465.762 146.915C464.161 154.735 463.022 162.645 461.672 170.515C462.072 170.635 462.482 170.755 462.882 170.875C464.072 168.565 465.251 166.245 466.452 163.945C474.811 147.995 486.731 134.765 498.681 121.525C508.102 111.095 516.591 99.9151 521.281 86.5151C523.701 79.5851 524.831 72.2051 526.721 64.3051L526.711 64.3151ZM619.071 368.405C620.161 368.175 621.271 368.015 622.331 367.695C636.701 363.495 651.371 361.815 666.221 363.625C677.081 364.955 687.781 367.645 698.641 369.015C704.631 369.775 711.081 370.155 716.811 368.685C721.751 367.415 728.631 364.115 729.841 360.225C731.552 354.695 726.291 349.355 721.321 345.655C714.901 340.865 707.431 339.475 699.671 339.395C682.451 339.225 666.071 343.315 650.231 349.715C639.011 354.255 628.191 359.595 619.081 368.405H619.071ZM84.0315 201.665C87.6615 210.765 94.1215 216.285 101.971 219.805C109.971 223.385 118.331 226.275 126.741 228.795C145.541 234.435 164.371 239.895 180.761 251.285C181.741 251.965 182.841 252.485 183.891 253.085C184.341 252.625 184.791 252.165 185.241 251.715C177.241 242.505 169.751 232.795 161.141 224.205C146.441 209.555 129.091 199.455 107.971 197.125C99.6915 196.215 91.8715 197.785 84.0415 201.665H84.0315ZM136.481 456.025C132.011 461.375 127.361 465.615 124.331 470.815C116.441 484.315 121.221 494.985 132.421 503.155C133.211 503.725 134.641 503.735 135.701 503.555C145.951 501.855 152.491 493.125 151.511 482.795C150.491 472.105 143.051 465.135 136.481 456.025ZM636.841 440.565C638.742 445.915 640.381 450.535 642.381 456.155C646.341 447.805 644.112 441.595 636.841 440.565Z" fill="#3F5F48"/>
</svg>
