<svg width="607" height="622" viewBox="0 0 607 622" fill="none" xmlns="http://www.w3.org/2000/svg">
<g clip-path="url(#clip0_830_974)">
<path d="M434.91 100.07C439.24 81.65 426.89 44 455.42 41.13C464.86 40.18 498.98 39.99 506.84 42.65C515.09 45.44 518.989 52.17 519.849 60.62C522.949 91.35 517.79 127.19 519.82 158.57C520.42 167.87 521.859 176.03 528.359 183C548.349 204.45 579.189 223.7 600.289 244.97C606.089 251.33 608.499 260.17 602.789 267.44C590.879 282.62 550.959 263.58 545.109 283.7C542.209 376.99 544.62 470.78 543.89 564.25C541.62 597.39 520.58 619.04 487.43 621.7H118.63C85.9895 619.36 65.3295 598.59 62.2295 566.19L62.2595 294.38C62.6995 266.29 39.5095 275.37 20.7595 273.93C3.42952 272.6 -5.67048 264.13 3.82952 247.03C89.9695 173.88 173.139 96.84 260.049 24.62C282.099 6.30001 298.49 -11.39 327.34 9.32C361.68 33.97 393.11 69.67 426.91 95.6C428.43 96.76 433.28 101.18 434.91 100.08V100.07ZM301.829 7.37001C293.329 7.83001 286.29 13.68 279.56 18.16C195.33 93.23 107.32 164.24 23.2295 239.45C19.9495 242.38 8.74952 251.64 7.69952 254.9C5.99952 260.18 8.53952 264.62 13.9795 265.71C33.8295 269.71 65.1195 256.11 68.9295 287.7C70.3895 382.07 67.3795 476.73 70.4595 570.94C75.4195 599.46 94.7195 612.8 122.67 614.65L482.42 614.71C511.39 612.93 530.379 599.41 535.729 570.09C539.099 474.15 534.429 377.56 538.109 281.71C545.989 257.64 574.379 269.27 592.049 265.71C603.379 263.43 598.509 254.04 592.789 248.44C572.889 228.93 548.14 211.83 527.82 192.51C518.93 184.06 513.82 177.45 512.81 164.55C510.24 131.81 516.289 93.72 512.849 61.59C511.939 53.06 506.64 48.94 498.35 48.12C489.77 47.26 459.92 47.07 452.68 49.39C449.62 50.37 447.3 51.51 445.7 54.4C441.85 61.34 444.61 82.41 443.94 91.61C442.03 118.19 426.64 105.1 414.45 95.04C384.83 70.6 353.7 37.14 322.91 15.72C316.73 11.42 309.79 6.93001 301.82 7.36001L301.829 7.37001Z" fill="#3F5F48"/>
<path d="M324.009 383.85L302.499 373.88C286.109 363.26 277.259 344.61 278.879 325.05C251.279 310.58 247.719 279.64 262.529 253.93C278.979 225.39 324.619 193.5 305.199 155.34C303.109 151.23 294.129 143.4 298.439 139.95C303.499 135.88 311.079 149.69 312.889 153.65C330.959 193.03 292.509 223.46 273.229 251.64C257.539 274.57 254.619 300.06 280.029 316.9C281.879 306.04 290.169 291.97 301.029 288.43C322.749 281.35 334.519 304.99 320.979 321.37C312.609 331.5 297.839 331.98 286.039 328.9C285.769 334.77 287.209 340.68 289.269 346.14C298.379 370.3 323.889 377.44 347.489 378.84C361.109 379.65 386.199 376.31 397.729 380.56C403.129 382.55 409.929 389.47 409.929 395.34V413.83C435.119 390.3 469.119 403.79 465.919 440.34C461.969 485.43 409.669 500.27 378.029 519.32C364.469 527.49 353.509 540.92 340.289 550.53C331.139 557.18 321.209 562.88 310.999 567.71C311.169 569.25 312.469 569.26 313.589 569.61C329.909 574.71 379.269 579.79 393.269 570.53C399.139 566.65 395.329 558.67 400.439 558.67C407.429 558.67 404.059 570.24 400.949 573.92C389.309 587.72 345.359 582.93 328.779 580.39C321.049 579.21 304.569 573.76 298.499 573.84C294.409 573.89 279.199 580.14 273.459 581.6C251.779 587.12 211.039 592.74 191.769 579.51C179.159 570.85 182.469 555.84 195.419 549.52C197.299 548.6 206.019 545.7 207.589 545.7H227.069C191.549 516.11 172.519 467.39 167.249 422.17C165.709 408.96 162.819 391.07 178.559 385.77C179.779 385.36 185.859 383.83 186.609 383.83H323.999L324.009 383.85ZM287.119 320.82C295.179 323.6 304.559 324.46 311.959 319.34C324.469 310.68 320.659 289.99 303.299 295.69C294.439 298.6 287.579 311.83 287.119 320.82ZM380.779 386.11L311.559 391.88C271.089 394.63 225.439 388.08 185.579 391.8C176.589 392.64 172.929 398.53 173.099 407.28C173.759 442.13 190.929 494.16 213.129 521.21C234.959 547.81 264.419 557.19 296.799 565.5C340.239 549.14 371.809 517.88 387.969 474.3C394.519 456.63 406.209 414.47 402.499 396.79C400.359 386.61 389.379 386.15 380.779 386.12V386.11ZM378.969 509.74C409.169 497.63 460.409 471.79 458.949 433.27C457.929 406.38 426.139 402.09 412.529 422.91C404.459 435.25 402.029 456.18 397.239 470.57C392.449 484.96 386.199 497.33 378.969 509.74ZM284.039 569.71C257.529 563.61 227.459 544.83 199.849 555.95C189.019 560.31 187.609 568.12 198.079 574.22C215.679 584.49 255.929 578.88 275.269 573.4C277.989 572.63 282.589 572.02 284.049 569.7L284.039 569.71Z" fill="#3F5F48"/>
</g>
<defs>
<clipPath id="clip0_830_974">
<rect width="606.03" height="621.7" fill="white"/>
</clipPath>
</defs>
</svg>
