<svg width="814" height="740" viewBox="0 0 814 740" fill="none" xmlns="http://www.w3.org/2000/svg">
<path d="M184.857 419.51C173.947 413.14 172.037 405.61 180.087 396.15C186.397 388.74 193.817 382.1 201.497 376.08C226.137 356.74 251.777 338.81 279.507 324.07C283.017 322.2 286.647 320.56 290.727 318.57C282.327 306.74 277.867 294.19 284.887 280.37C291.677 267.02 304.247 261.88 318.087 258.63C317.947 257.82 317.927 257.18 317.727 256.6C313.067 243.12 316.757 231.59 327.457 223.07C333.957 217.89 341.947 214.48 349.547 210.85C352.547 209.42 353.937 208.62 353.157 204.85C345.927 170.1 372.157 135.44 407.897 132.48C411.627 132.17 413.107 131.34 413.847 127.27C421.127 87.2497 438.027 52.0597 467.467 23.4897C478.727 12.5697 491.767 4.33968 507.007 0.069682C508.387 -0.320318 510.257 1.02968 511.907 1.56968C510.927 3.02968 510.227 5.39968 508.917 5.80968C487.697 12.4297 471.597 26.0997 458.197 43.1097C438.177 68.5297 424.917 97.0997 419.947 129.27C419.827 130.06 419.807 130.86 419.727 131.75C455.487 139.31 469.837 162.77 469.327 197.96C471.147 198.44 473.177 198.96 475.217 199.5C498.237 205.59 513.987 225.33 514.397 249.03C514.457 252.75 515.507 254.53 519.017 255.94C529.367 260.13 536.957 267.32 540.517 278.15C541.437 280.93 542.907 281.97 545.817 282.3C568.837 284.97 590.687 291.59 611.707 301.39C624.617 307.41 631.587 317.08 634.217 330.93C638.077 351.27 637.267 371.71 636.597 392.16C635.347 430.26 633.897 468.36 632.537 506.46C632.487 507.91 632.537 509.36 632.537 511.56C634.047 510.79 634.927 510.48 635.637 509.95C645.977 502.24 657.837 500.11 670.227 501.51C703.177 505.23 733.427 517.08 762.117 533.22C776.127 541.1 788.887 550.63 799.237 563.14C817.997 585.83 818.267 612.2 799.987 635.29C789.147 648.98 775.317 659.05 760.427 667.71C725.877 687.79 688.397 700.49 649.957 710.53C590.297 726.1 529.547 734.38 468.027 737.83C376.247 742.97 285.337 736.65 195.387 717.55C153.757 708.71 113.087 696.71 74.4668 678.53C58.0068 670.78 42.1068 661.98 28.4068 649.86C22.2068 644.38 16.3168 638.35 11.2868 631.8C-3.72321 612.24 -3.63321 587.85 10.7868 567.8C23.9268 549.54 42.1968 537.8 61.7768 527.84C89.8768 513.55 119.867 504.72 150.527 498.01C159.627 496.02 168.787 494.25 177.977 492.73C181.517 492.14 182.987 490.61 182.597 487.17C181.137 474.3 179.527 461.44 178.227 448.55C177.197 438.34 176.847 428.15 184.847 419.52L184.857 419.51ZM182.367 498.29C177.567 499.13 173.327 499.79 169.117 500.63C133.767 507.69 98.9568 516.55 66.4568 532.71C48.4468 541.67 31.6868 552.4 18.6368 568.11C2.97679 586.97 1.83679 608.73 16.7668 628.05C23.0968 636.24 30.8468 643.69 39.1068 649.95C65.1668 669.72 95.2268 681.68 125.967 691.89C195.827 715.09 267.967 725.85 341.157 730.75C391.587 734.12 441.997 733.67 492.377 729.6C550.767 724.89 608.417 715.89 664.777 699.57C697.647 690.05 729.677 678.41 759.197 660.74C774.017 651.87 787.707 641.57 797.767 627.26C808.247 612.35 811.227 596.1 802.087 579.83C797.137 571.01 790.537 562.41 782.787 555.99C750.717 529.44 713.087 514.83 672.317 508.12C660.577 506.19 649.007 507.79 639.007 515.29C634.547 518.64 631.977 522.51 632.207 528.72C632.717 542.68 632.507 556.68 632.247 570.66C632.007 583.61 625.967 592.85 613.597 597.46C607.057 599.89 600.547 602.48 593.847 604.39C545.477 618.18 496.327 628.57 446.887 637.59C398.887 646.35 350.637 653.39 301.957 657.19C271.407 659.58 240.827 661.5 210.147 659.64C198.317 658.92 186.557 657.66 175.647 652.5C160.497 645.33 155.027 631.33 162.827 616.45C166.587 609.27 171.827 601.97 178.267 597.3C185.737 591.89 186.507 585.56 186.037 577.93C185.847 574.78 185.507 571.62 184.967 568.52C183.757 561.64 181.857 554.85 181.177 547.92C180.067 536.56 180.317 525.35 192.317 518.03C185.277 513.5 183.267 506.6 182.367 498.28V498.29ZM628.587 333.96C619.137 343.11 608.167 346.4 596.907 348.89C584.237 351.69 571.537 354.4 558.777 356.72C502.137 367.04 445.487 377.34 388.797 387.41C324.917 398.75 260.987 409.84 197.077 421.01C189.337 422.36 185.377 425.89 184.677 433.72C184.167 439.48 184.467 445.35 184.887 451.14C185.937 465.38 187.257 479.61 188.487 493.83C188.777 497.14 188.937 500.49 189.557 503.75C190.897 510.72 195.237 514.34 202.417 514.72C204.737 514.84 207.107 514.98 209.407 514.68C233.327 511.59 257.397 509.35 281.107 505.09C374.807 488.25 468.377 470.67 562.047 453.66C574.097 451.47 586.447 450.27 598.687 450.01C607.597 449.82 612.627 455.61 613.357 464.59C614.677 480.69 608.777 493.64 594.317 501.19C585.697 505.69 576.307 509.21 566.867 511.53C544.737 516.97 522.407 521.66 500.067 526.23C455.387 535.37 410.697 544.5 365.917 553.14C327.187 560.61 288.307 567.25 249.547 574.57C230.697 578.13 212.327 583.49 195.437 592.93C193.597 593.95 191.157 595.97 191.037 597.66C190.227 610.08 189.207 622.57 189.727 634.97C190.147 644.91 196.397 650.67 206.327 651.9C214.897 652.96 223.577 653.57 232.207 653.55C288.777 653.45 344.857 647.5 400.677 638.78C464.507 628.81 527.757 616.04 590.057 598.85C597.957 596.67 605.637 593.68 614.037 590.85C607.257 584.36 606.057 576.98 606.727 569.37C608.247 552.3 614.087 536.72 623.647 522.45C625.187 520.15 626.167 517.04 626.257 514.27C627.337 483.66 628.317 453.05 629.077 422.43C629.677 398.14 630.047 373.84 630.267 349.55C630.307 344.68 629.227 339.79 628.557 333.96H628.587ZM193.367 585.09C207.377 580.43 221.717 574.4 236.657 570.98C261.767 565.23 287.287 561.23 312.597 556.35C367.327 545.79 422.097 535.4 476.737 524.43C508.377 518.08 539.897 511.04 571.297 503.59C579.377 501.67 587.257 497.76 594.417 493.42C604.017 487.61 607.707 478 607.347 466.92C607.087 458.97 603.857 455.57 595.817 455.85C588.527 456.11 581.187 456.88 574.007 458.17C492.787 472.84 411.617 487.75 330.387 502.37C295.837 508.59 261.207 514.41 226.567 520.08C217.897 521.5 208.947 521.19 200.247 522.44C192.087 523.61 188.417 527.95 187.437 536.12C187.067 539.23 186.847 542.47 187.287 545.55C189.207 559.02 191.397 572.45 193.357 585.08L193.367 585.09ZM543.277 288.24C543.007 290.07 542.787 291.19 542.677 292.33C541.577 304.59 536.037 314.39 526.697 322.33C518.747 329.08 509.637 333.69 499.567 335.41C487.317 337.51 474.857 338.72 462.437 339.42C441.187 340.61 419.887 341.1 398.607 341.9C383.327 342.47 368.027 343.87 352.777 343.46C334.377 342.96 316.787 338.11 301.587 327.32C296.937 324.02 293.527 323.89 289.187 326.58C287.917 327.37 286.447 327.83 285.187 328.62C264.907 341.34 244.247 353.5 224.537 367.04C211.427 376.04 199.537 386.85 187.397 397.21C183.967 400.14 180.217 404.24 182.327 409.31C184.487 414.5 190.077 414.16 194.557 413.84C204.827 413.11 215.147 412.27 225.267 410.46C288.627 399.11 351.937 387.44 415.277 375.94C468.467 366.28 521.717 356.92 574.847 346.91C588.337 344.37 601.867 340.89 614.637 335.94C628.227 330.67 628.627 320.49 616.777 312.16C615.827 311.49 614.877 310.8 613.857 310.24C591.987 298.22 568.497 291.46 543.267 288.24H543.277ZM378.287 309.07C401.097 310.04 423.917 310.56 446.457 305.97C465.717 302.05 483.557 295.17 496.907 279.8C520.187 252.99 505.997 212.01 471.127 205.1C468.237 204.53 467.437 205.61 466.007 208.02C461.737 215.26 457.827 223.19 451.897 228.88C424.047 255.6 374.147 247.76 358.027 218.3C357.377 217.11 354.497 215.86 353.457 216.35C346.137 219.78 338.167 222.6 332.007 227.6C317.547 239.32 318.927 257.16 335.117 266.33C342.737 270.64 351.747 273.85 360.417 274.74C400.507 278.85 437.647 271.63 468.597 243.44C469.597 242.53 471.787 242.92 473.417 242.7C473.297 244.46 473.877 246.85 472.947 247.87C470.057 251.05 466.807 254 463.327 256.52C435.247 276.83 403.357 283.6 369.367 282.18C354.557 281.56 339.847 279.11 328.167 269.27C322.547 264.54 317.697 264.69 311.857 266.9C309.057 267.96 306.217 268.98 303.597 270.39C286.227 279.74 282.677 298.82 295.627 313.65C296.607 314.77 299.047 315.41 300.577 315.11C306.277 313.98 311.817 312.01 317.537 311C337.677 307.42 357.977 308 378.287 309.08V309.07ZM412.507 139.49C411.087 139.08 410.767 138.9 410.457 138.91C378.047 139.79 351.607 173.24 359.537 204.41C360.267 207.27 361.877 207.34 364.327 207.15C370.777 206.65 377.377 205.58 383.687 206.42C389.737 207.22 396.187 209.1 401.257 212.37C409.537 217.71 408.617 227.57 400.187 232.83C398.167 234.09 395.937 235.01 392.517 236.73C414.887 241.06 434.027 238.27 449.527 222.4C463.947 207.63 466.267 189.88 459.557 171.04C454.467 156.74 444.547 146.61 429.797 140.83C430.757 144.75 431.957 147.75 432.157 150.82C432.597 157.3 428.897 162.63 423.937 163.44C419.017 164.25 415.087 160.72 413.247 153.77C412.907 152.49 412.577 151.17 412.537 149.85C412.437 146.4 412.507 142.94 412.507 139.49ZM304.807 320.49C304.607 321.19 304.397 321.89 304.197 322.59C311.077 325.72 317.757 329.39 324.867 331.86C340.817 337.4 357.437 338.09 374.167 337.31C406.887 335.79 439.647 334.8 472.327 332.64C484.297 331.85 496.407 329.34 507.877 325.78C519.587 322.15 528.827 314.34 533.877 302.53C541.297 285.16 531.677 265.16 513.897 261.24C513.627 261.61 513.207 261.97 513.067 262.41C505.677 286.74 487.597 299.75 464.877 307.67C446.607 314.04 427.617 316.28 408.367 316.12C385.577 315.94 362.797 315.08 340.007 315C328.037 314.96 316.277 317.13 304.797 320.5L304.807 320.49ZM183.917 601.91C183.317 601.53 182.727 601.16 182.127 600.79C177.827 606.29 172.797 611.38 169.357 617.38C160.487 632.83 170.387 649.13 188.657 649.55C179.507 634.41 183.367 618 183.927 601.92L183.917 601.91ZM627.097 532.48C626.347 532.4 625.607 532.32 624.857 532.24C617.767 546.03 612.047 560.23 613.227 576.25C613.507 580.08 614.457 584.59 619.147 584.89C623.577 585.17 624.667 580.52 624.887 577.4C625.927 562.45 626.407 547.47 627.087 532.49L627.097 532.48ZM363.817 213.65C368.007 225.4 384.097 233.1 394.517 228.37C396.917 227.28 399.957 224.53 400.097 222.36C400.247 220.21 397.597 216.83 395.337 215.75C385.227 210.92 374.597 211.66 363.807 213.65H363.817ZM422.637 157.42C428.507 151.84 426.857 144.53 418.847 140.91C418.877 146.87 417.557 152.73 422.637 157.42Z" fill="#3F5F48"/>
</svg>
