<svg width="1018" height="839" viewBox="0 0 1018 839" fill="none" xmlns="http://www.w3.org/2000/svg">
<g clip-path="url(#clip0_830_978)">
<path d="M482.3 657.61C479.82 681.07 461.53 693.32 440.49 699.24C439.24 707.8 436.29 719.25 430.86 726.07C423.22 735.67 410.51 736.2 400.31 741.48C378.34 767.07 360 796.85 330.09 814.15C321.18 819.3 311.16 823.06 302.13 828.16C293.1 833.26 286.85 842.53 274.77 837.14C259.5 830.33 265.05 805.95 271.29 794.32C280.22 777.69 292.35 772.12 305.91 760.99C309.38 758.14 316.84 747.24 321.47 750.47C322.46 751.23 322.61 752.36 322.48 753.51C322.06 757.05 296.43 774.99 291.92 778.97C278.86 790.48 268.68 804.9 271.53 823.4C272.24 828.03 276.95 833.09 281.86 832.92C287.15 832.73 299.19 822.89 304.77 819.8C310.73 816.5 317.24 814.32 323.09 811.15C347.99 797.64 368.14 772.65 385.35 750.51C386.11 749.54 390.1 744.76 389.36 744.04C367.1 749.46 343.06 752.83 320.41 747.54C302.41 743.34 293.1 733.76 279.86 722.1C278.38 720.79 279.16 718.29 276.45 719.06C275.91 739.12 260.85 767.6 237.2 762.79C223.75 760.06 218.85 740.52 215.78 729.26C202.06 679 204.11 626.18 198.5 574.67C194.23 535.46 183.04 497.48 183.48 457.72C184.07 404.07 207.82 365.5 196.02 309.37C176.63 217.12 97.0602 157.05 45.8102 82.88C35.4202 67.85 25.4702 52.18 16.4802 36.27C12.1402 28.57 3.05021 13.95 0.460209 6.35C-1.17979 1.52 1.81021 -1.53 5.53021 0.79C6.40021 1.33 13.0602 16.63 14.5002 19.28C25.7802 40.07 38.3502 60.45 51.8302 79.88C104.96 156.49 192.44 223.87 204.38 322.01C210.43 371.71 189.89 410.6 189.5 458.71C189.2 495.6 199.21 529.61 203.52 565.68C210.05 620.38 207.4 678.48 222.6 731.46C225.13 740.27 229.29 755.72 239.98 757.04C261.33 759.67 268.92 731.34 272.3 715.36C272.32 714.31 260.45 701.53 258.53 699.54C252.81 693.61 245.83 689.38 241.27 681.83C229.6 662.51 252.53 640.94 272.25 646.9L274.34 645.65L271.49 588.15C263.63 588.52 255.47 587.22 248.29 583.87C244.61 582.15 237.94 578.69 242.17 574.11C252.43 575.28 261.24 581.25 272 582.14C289.87 583.62 312.75 571.74 324.47 591.62C327.54 596.83 328.03 601.96 329.42 607.65C336.43 609.42 341.93 612.11 347.75 616.3C353.54 620.46 361.43 630.36 367.06 632.96C378.1 638.06 393.06 625.55 405.37 628.12C405.4 612.19 421.2 601.93 433.68 594.98C435.99 593.69 440.53 592.98 442.29 591.6C443.83 590.39 448.58 580.12 451.37 576.7C462.93 562.55 480.76 557.28 498.7 559.29C502.05 559.66 518.31 564.4 520.59 566.12C522.37 567.46 521.9 569.29 521.22 571.11C515.5 571.71 510.68 567.99 505.31 566.68C486.07 561.98 463.8 566.53 453.18 584.5C449.34 590.99 444.84 603.54 451.41 609.59C455.76 613.6 475.66 613.29 482.7 614.27C499.69 616.65 524.2 626.37 538.31 613.67C545.91 606.82 567.27 563.91 568.25 553.69C568.76 548.39 566.1 538.54 568.8 535.24C573.93 528.97 576.7 540.92 577.14 544.81C579.5 565.47 575 609.6 593.3 622.58C603.4 629.75 665.1 645.87 678.8 646.99C700.89 648.8 710.27 634.65 727.46 624.97C733.74 621.43 750.55 616.13 752.45 609.99C756.1 598.17 741.02 588.48 730.57 588.15C721.01 587.85 691.47 601.27 684.66 608.15C682.47 610.36 682.84 613.61 679.52 613.86C674.71 614.22 676.31 609.13 673.16 606.67C670.01 604.21 646.99 598.29 642.64 598.14C638.48 598 620.3 604.21 621.16 595.71C621.96 587.83 638.75 592.48 642.21 588.69C650.33 579.81 642.43 562.26 633.71 556.19C628.95 552.88 615.69 551.47 613.72 547.19C609.2 537.35 630.41 544.44 633.7 547.88C644.19 543.33 646.15 521.64 643.73 512.19C642.5 507.37 638.15 502.34 640.26 497.32C645.09 496.3 645.95 499.93 647.75 503.29C662.86 498.34 672.77 493.56 688.67 499.23C695.23 501.57 712.95 513.58 716.69 519.17C717.45 520.31 718.42 521.06 718.23 522.72C713.45 539.65 705.89 555.56 700.88 572.42C699.78 576.12 696.64 593.33 694.51 594.03C693.2 594.46 691.55 594.11 690.16 594.17C687.3 591.38 707.81 530.98 712.9 523.71C702.85 514.83 688.91 502.18 674.67 502.17C666.28 502.17 657.82 508.33 649.19 507.24C651.19 522.39 651.79 542.8 638.21 552.7C647.81 558.39 653.79 573.9 651.07 584.55C650.14 588.18 648.14 589.86 647.2 593.15C658.52 594.99 670 597.86 679.69 604.16C700.64 591.26 731.09 570.01 753.1 592.15C755.01 583.89 757.14 575.61 760.09 567.65C773.33 531.94 803.46 508.24 818.92 473.6C837.92 431.02 831.43 389.33 840.53 345.33C847.45 311.88 861.82 277.4 879.2 248.11C907.47 200.5 940.87 153.72 970.35 106.45C984.86 83.18 998.86 59.57 1012.83 36.02C1016.96 32.45 1018.97 36.07 1017.35 40.53C1013.61 50.79 999.63 71.03 993.33 81.46C969.57 120.87 944.12 159.54 919.39 198.37C891.14 242.72 866.57 275.03 851.31 327.14C836.51 377.66 846.03 429.23 823.91 477.59C808.76 510.7 778.97 535.13 766.08 568.64C763.9 574.3 757.78 592.7 757.33 597.87C757.08 600.74 759 603.72 759.14 606.68C759.52 614.78 753.29 619.27 746.12 621.14L746.63 623.14C768.97 616.86 796 634.81 792.02 659.54C790.01 672.03 775.08 666.48 767.59 666.1C751.26 665.29 737.02 668.39 721.14 671.09C723.44 676.37 727.8 680.25 729.9 685.8C734.39 697.63 732.98 713.24 716.42 708.28C709.86 706.31 690.7 690.55 683.08 685.66C669.03 676.65 654.09 668.94 640.29 659.51C631.29 653.36 616.02 638.74 608.16 634.69C604.65 632.88 598.66 632.23 594.55 630.32C571.54 619.6 573.59 587.67 572.25 566.18C569.4 565.64 570.64 566.94 569.99 568.36C563.59 582.25 550.21 615.62 536.99 622.33C520.43 630.73 499.91 622.75 482.69 620.26C473.08 618.87 453.86 619.98 447.01 613.97C441.96 609.54 442.57 604.21 441.85 598.13C436.84 597.73 417.76 613.07 414.55 617.79C406.02 630.31 415.95 627.44 424.91 630.09C428.7 631.21 442.88 636.85 436.89 642.12C431.23 647.1 415.25 634.87 408.91 634.09C393.04 632.15 381.37 642.38 368.36 639.67C358.36 637.59 349.58 624.22 340.36 618.71C329.26 612.08 315.81 610.5 305.46 619.62C288.92 634.2 311.73 647.41 320.97 658.09C331.24 669.97 340.08 689.58 354.74 696.26C379.96 707.75 439.26 699.35 461.67 682.91C469.68 677.03 476.33 665.69 476.33 655.6V623.63C476.33 621.65 482.33 621.65 482.33 623.63C482.33 634.1 483.39 647.58 482.33 657.6L482.3 657.61ZM323.43 607.14C319.42 579.59 298.15 585.7 277.46 588.16C277.68 595.63 277.17 603.17 277.48 610.64C277.93 621.59 279.83 632.71 280.47 643.62C280.56 645.19 279.19 647.08 279.56 648.47C299.31 659.64 314.14 677.69 334.41 688.09L317.41 663.64C308.1 652.87 288.54 640.62 294.67 623.86C298.74 612.72 312.58 607.99 323.44 607.15L323.43 607.14ZM625.19 642.1L720.61 703.16C731.31 703.82 723.68 686.66 720.91 681.78C719.11 678.61 709.35 669.02 713.07 666.54C724.98 665.84 736.86 661.02 748.61 660.12C760.85 659.18 773.02 661.62 785.13 660.67C790.17 637.92 769.12 626.27 748.72 628.25C724.72 630.59 711.39 651.2 688.63 653.09C668.83 654.74 644.99 644.46 625.71 640.1L625.2 642.1H625.19ZM261.21 652.35C249 654.44 239.6 668.04 246.65 679.42C268.16 698.02 292.19 734.26 320.41 741.55C346.64 748.32 391.32 740.47 416.13 729.34C427.85 724.08 430.76 713.97 434.3 702.56L432.25 701.46C406.18 708.32 374.31 712.47 348.72 702.25C338.11 698.01 324.84 690.17 315.51 683.5C300.49 672.76 281.02 648.95 261.2 652.35H261.21Z" fill="#3F5F48"/>
<path d="M534.25 479.23C534.64 477.77 533.86 477.57 533.28 476.73C529.87 471.8 523.36 464.8 519.24 459.79C482.39 414.9 439.45 380.55 401.84 338.38C372.24 305.19 369.11 275.79 354.14 236.2C342.03 204.17 326.48 173.52 315.4 141.04C312.41 132.27 305.53 113.94 304.81 105.56C304.66 103.78 304.75 103.14 306.43 102.01C308.78 100.77 310.23 102.21 311.16 104.31C314.66 112.15 317.07 126.32 320.13 135.31C333.36 174.19 352.09 210.92 365.65 249.66C371.67 266.87 375.41 285.36 383.51 301.75C398.55 332.19 428.28 354.76 451.84 378.3C482.42 408.86 512.67 439.65 538.77 474.25C554.09 464.75 561.26 447.45 572.7 434.27C586.54 418.32 605.65 403.07 620.69 387.34C641.75 365.31 662.95 342.76 683.64 320.39C707.07 295.06 709.31 287.83 719.83 255.66C731.33 220.53 756.15 188.32 769.8 152.75C771.7 147.8 775.1 133.12 777.14 130.12C779.63 126.47 782.22 128.79 782.08 132.97C781.65 144.91 767.05 175.38 761.24 187.16C751.68 206.51 737.96 226.04 729.91 245.75C717.53 276.05 720.27 288.07 696.63 315.39C675.34 339.99 649.37 366.58 626.69 390.33C611.19 406.56 590.81 422.84 576.7 439.27C569.89 447.2 564.96 456.78 558.2 464.73C539.07 487.22 512.98 498.78 491.37 516.8C474.67 530.73 478.18 537.9 474.09 556.48C473.14 560.78 467.77 563.45 467.27 558.69C468.65 537.3 474.67 518.78 493.96 507.41L534.24 479.23H534.25Z" fill="#3F5F48"/>
<path d="M511.349 559.11C509.259 556.18 519.439 547.27 521.789 545.23C545.299 524.83 581.439 513.64 609.549 500.1C631.439 489.55 652.169 476.84 674.459 467.09C709.689 451.69 751.849 444.27 781.069 418.82C784.809 415.57 794.039 404.28 797.049 402.76C799.409 401.57 801.689 404.73 800.549 407.27C797.949 413.08 779.629 428.48 773.779 432.51C752.269 447.33 728.709 452.48 704.869 461.52C674.689 472.96 650.069 487.16 621.539 501.09C591.959 515.53 552.709 527.58 527.789 548.22C525.059 550.48 514.659 563.75 511.349 559.1V559.11Z" fill="#3F5F48"/>
<path d="M413.24 489.14C351.1 492.88 308.05 450.14 263.94 414.33C250.2 403.17 228.99 392.55 223.79 374.54C222.29 369.33 221.74 360.72 227.75 358.1C241.28 352.2 247.07 380.56 250.62 388.68C257.39 404.16 282.13 422.24 295.97 433.26C329.94 460.32 365.98 484.58 411.68 483.41C414.07 484.62 414.36 486.97 413.24 489.14ZM245.48 392.32C243.6 387.84 236.79 362.47 231.12 363.4C230.02 363.58 228.65 365.68 228.48 366.9C227.41 374.8 238.39 389.04 245.48 392.32Z" fill="#3F5F48"/>
</g>
<defs>
<clipPath id="clip0_830_978">
<rect width="1017.89" height="838.77" fill="white"/>
</clipPath>
</defs>
</svg>
