<svg width="722" height="708" viewBox="0 0 722 708" fill="none" xmlns="http://www.w3.org/2000/svg">
<g clip-path="url(#clip0_830_988)">
<path d="M359.661 121.34C369.241 109.7 377.311 96.84 387.111 85.35C443.911 18.76 528.531 -22.35 615.431 12.94C692.091 44.08 729.201 122.27 720.221 202.63C702.421 361.85 536.731 460.91 428.581 558.47C405.331 579.44 383.271 602.01 364.931 627.42C375.431 645.82 385.251 666.25 380.351 688.11C373.931 716.76 341.451 712.53 338.681 683.37C336.721 662.73 344.441 645.02 355.491 628.25L355.201 626.99C331.881 593.21 301.161 565.59 270.191 539.03C166.961 450.46 16.2308 352.91 1.0608 204.64C-14.1092 56.37 135.391 -50.09 267.391 25.24C305.481 46.98 338.221 83.49 359.661 121.33V121.34ZM359.661 620.94C384.411 587.78 414.821 559.88 446.111 533.04C543.431 449.54 677.101 361.26 708.081 228.46C749.271 51.86 567.141 -60.87 428.121 55.42C403.411 76.09 382.911 101.58 365.161 128.33C376.471 153.01 394.481 186.39 382.491 213.63C376.551 227.13 364.031 232.05 350.091 227.33C339.681 223.8 334.631 212.02 333.691 201.77C331.241 175.06 342.741 152.03 355.511 129.6L355.161 127.42C311.071 52.64 235.601 -6.71002 143.781 11.89C50.2308 30.85 -5.0792 123.21 10.1908 215.49C33.3508 355.47 174.081 446.65 274.191 532.03C305.211 558.49 337.131 586.73 359.661 620.93V620.94ZM360.141 137.35C348.651 156.25 332.761 191.62 344.621 212.8C350.161 222.69 365.391 224.82 372.631 215.76C387.741 196.84 371.421 155.7 360.141 137.34V137.35ZM360.141 635.95C349.711 649.94 339.591 677.25 349.441 693.59C354.771 702.44 365.141 701.83 370.471 693.22C380.261 677.38 370.161 649.92 360.141 635.95Z" fill="#3F5F48"/>
</g>
<defs>
<clipPath id="clip0_830_988">
<rect width="721.53" height="707.55" fill="white"/>
</clipPath>
</defs>
</svg>
