<svg width="554" height="816" viewBox="0 0 554 816" fill="none" xmlns="http://www.w3.org/2000/svg">
<g clip-path="url(#clip0_830_984)">
<path d="M524.75 85.28C521.97 96.79 529.05 94.28 534.14 100.11C535.74 101.94 538.18 106.34 538.55 108.7C539.89 117.25 536.52 143.89 532.79 151.82C529.11 159.64 522.01 162.99 513.64 163.17C503.93 228.39 490.39 293.42 468.62 355.65C476.35 356.4 490.08 355.71 487.4 367.43C485.62 375.21 468.06 378.39 461.31 380.33L400.67 546.69C396.43 555.16 384.99 556.66 379.18 549.08L312.49 424.77C308.04 419.21 296.51 421.66 290.08 421.18C222.7 416.12 155.78 406.31 89.6201 393.15L129.64 468.14C131.97 468.65 131.24 467.82 131.86 466.86C141.2 452.42 146.34 428.44 154.76 412.79C155.53 410.53 159.59 408.8 161.17 411.1L161.36 416.39C152.19 433.83 146.71 455.44 137.5 472.53C135.07 477.03 131.84 480.29 127.11 476.16L80.5901 391.69C60.2301 386.01 38.9701 382.98 18.8601 376.42C11.1701 373.91 -5.04989 369.18 1.57011 357.6C7.62011 347.02 46.9901 347.06 57.9801 351.24C62.4801 340.34 81.3801 336.79 92.0801 336.11C97.2301 335.79 107.52 337.6 110.88 337C113.11 336.61 117.04 332.48 120.09 331.12C130.2 326.64 147.12 326.31 158.1 327.16C168.15 327.94 177.47 334.57 184.45 324.48C193.58 311.26 200.31 282.24 204.13 266.16C213.73 225.75 219.4 184.44 226.57 143.54L225.63 141.63C211.23 138.7 208.88 127.64 209.62 114.65C210.59 97.63 213.91 74.78 235.53 75.05L236.54 66.2C214.9 62.97 219.89 35.17 223.74 19.76C228.84 -0.649988 240.56 -0.259989 259.15 0.100011C306.4 1.01001 355.62 5.79001 403.07 8.18001C444.64 10.28 487.94 10.08 529.15 13.1C539.84 13.88 551.31 16.56 553.37 28.88C554.93 38.22 551.39 65.44 546.63 73.67C541.23 83.01 534.57 83.56 524.74 85.29L524.75 85.28ZM244.37 7.40001C234.23 8.88001 231.73 15.98 229.88 24.91C228.37 32.22 225.48 49.41 230.15 55.1C231.03 56.17 240.42 61.79 241.29 61.94C242.66 62.18 244.66 60.13 247.08 60.1C270.37 59.81 300.92 63.62 325.1 65.15C385.34 68.95 448.37 70.7 508.1 76.15C511.89 76.5 518.86 79 521.09 79.05C521.75 79.06 531.11 76.86 532.43 76.45C536.45 75.22 539.25 72.92 541.12 69.14C544.28 62.76 547.76 36.67 546.38 29.86C543.75 16.86 516.13 20.65 506.07 20.17C432.09 16.62 358.11 12.48 284.07 9.17001C272.5 8.65001 255.46 5.77001 244.37 7.39001V7.40001ZM517.61 84.13C433.03 80.1 348.64 73.94 264.12 69.12C257.19 68.72 241.89 63.32 242.59 74.62L516.03 93.17L517.61 84.13ZM227.6 135.14L234.64 84.61L233.14 82.32C221.01 84.1 219.44 94.62 217.88 104.92C216.18 116.15 213.05 132.05 227.6 135.15V135.14ZM515.49 100.24L241.6 82.13L235.03 136.2L237.1 137.13C326.91 144.83 416.82 152.53 506.94 156.17L515.49 100.24ZM515.61 156.13C516.45 157.07 523.45 152.94 524.61 151.64C529.14 146.57 532.42 118.7 531.6 111.63C531.02 106.66 528.24 101.55 522.6 102.12L515.6 156.12L515.61 156.13ZM506.61 163.13L233.54 144.57C226.43 185.77 220.8 227.46 211.12 268.15C207.48 283.46 197.65 322.7 187.14 333.17C179.15 341.13 166.87 334.88 157.09 334.15C146.24 333.34 132.19 333.22 122.61 338.64C197.19 354.74 272.83 368.32 349.12 374.13C372.44 375.91 396 375.42 419.15 377.1C423.8 377.44 433.6 377.94 428.68 384.72C427.63 386.17 417.82 390.21 415.28 391.32C406.04 395.37 392.38 400.52 382.64 402.68C379.18 403.45 365.86 405.88 363.86 403.89C356.28 396.33 377.02 396.43 380.65 395.69C388.47 394.09 400.9 389.6 408.38 386.42C409.62 385.9 411.33 385.88 411.6 384.15C335.25 382.59 259.36 372.6 184.39 358.85C155.71 353.59 110.94 339.44 83.5601 344.61C77.8801 345.68 68.5101 347.53 65.6201 352.65C65.7601 354.04 81.9301 357.95 84.5901 358.65C157.79 377.83 234.56 388.85 310.11 394.13C319.68 394.8 348.84 393.74 355.32 397.92C357.52 399.34 358.66 400.87 358.65 403.65C358.62 415.15 333.8 417.06 333.62 419.64L397.58 535.14L458.59 364.15C387.33 367.77 315.57 360.93 245.26 349.98C238.59 348.94 192.22 342.36 190.72 340.03C188.17 336.07 192.07 333.94 196.05 334.14C219.22 335.33 250.8 343.73 275.23 347.01C328.31 354.12 387.69 360.44 441.13 358.19C447.33 357.93 454.22 356.67 460.63 356.69C483.12 294.28 496.29 228.66 506.59 163.15L506.61 163.13ZM350.6 403.14C266.98 400.26 184.16 389.1 102.79 370.45C78.5601 364.9 48.5601 352.76 24.2301 356.25C17.3401 357.24 -1.32989 360.5 13.3501 366.89C31.9701 375 63.8401 380.56 84.4001 384.84C148.42 398.15 213.89 407.69 279.12 413.12C287.77 413.84 307.25 412.7 313.67 416.57C316.86 418.49 318.84 422.24 320.78 425.46C343.08 462.49 360.72 505.02 383.45 541.8C385.68 545.41 387.75 549.78 392.15 545.11L392.19 542.13L326.8 420.37C325.24 409.32 341.15 410.6 348.3 406.33C349.65 405.53 350.99 405.13 350.6 403.14ZM480.6 364.15C479.59 363.05 469.01 362.68 467.24 363.27L463.61 372.13C464.83 373.3 477.36 367.99 479.34 366.43C479.96 365.94 482.04 365.72 480.6 364.15Z" fill="#3F5F48"/>
<path d="M123.721 485.02C132.931 481.88 135.451 479.71 141.831 488.41L211.601 615.64L345.851 640.39C349.471 640.99 350.271 643.61 349.471 647L217.121 624.1L215.591 624.65C220.451 636.17 217.571 650.36 203.141 651.19C188.361 652.04 182.511 639.51 195.691 631.5C196.031 628.4 192.321 625.54 191.791 623.37C191.261 621.2 192.521 618.98 192.111 618.07C191.921 617.65 187.421 613.78 185.811 611.44C168.651 586.47 153.131 550.72 137.781 523.47C134.021 516.8 129.871 508.7 125.851 502.43C125.221 501.45 125.951 500.64 123.621 501.15C117.231 516.85 110.461 532.43 104.121 548.16C80.691 606.26 60.151 665.95 35.121 723.16C27.851 731.08 20.031 725.71 14.251 730.29C7.83097 735.37 13.561 737.67 19.121 738.13C25.781 738.68 35.381 737.4 39.621 731.66C47.521 716.4 50.201 696.01 58.061 681.1C64.381 669.1 74.851 668.74 86.801 670.47C119.051 675.15 155.351 685.45 187.631 692.64C222.771 700.47 260.761 707.66 295.251 717.02C298.131 717.8 301.951 718.63 304.601 719.67C337.841 732.86 298.881 775.88 302.851 798.41C303.141 800.06 304.521 803.13 305.601 804.38C309.701 809.14 328.471 811.25 328.601 804.66C326.721 796.42 315.961 796.75 313.391 788.87C310.131 778.86 320.021 755.3 323.601 744.62C344.231 683.18 367.201 622.48 388.111 561.13C392.291 552.81 403.501 551.6 408.451 559.8L474.391 683.86C478.901 693 498.571 686.45 500.551 698.69C502.861 712.93 486.451 713.4 476.201 712.05C454.111 709.15 451.191 682.15 440.581 666.67C431.611 662.63 375.981 656.73 372.511 652.71C371.371 651.39 371.751 647.93 372.781 647.28C375.911 645.28 427.791 657.01 435.621 658.13C423.971 634.05 412.021 609.74 398.801 586.46C397.131 583.51 394.831 578.84 392.921 576.39C392.281 575.58 392.941 574.56 390.641 575.13L321.101 775.1C313.341 792.23 333.391 789.34 335.401 802.88C337.551 817.39 317.661 817.27 308.071 814.18C278.391 804.63 310.841 757.03 311.551 738.47C311.901 729.23 303.141 726.47 295.831 724.42C251.251 711.91 200.331 702.7 154.641 692.61C129.441 687.04 104.241 681.48 78.981 676.2C71.901 676.18 66.931 679.63 63.751 685.75C56.741 699.25 52.311 730.23 42.161 739.16C29.301 750.46 -7.76904 745.81 6.61096 727.61C13.311 719.12 25.611 723.48 30.091 718.09C60.691 643.59 87.001 567.19 119.461 493.39L67.761 395.83C69.021 392.95 72.641 391.77 74.511 394.75L123.741 485.01L123.721 485.02ZM201.601 613.13L133.601 489.56C131.991 488.71 128.551 490.54 128.731 492.45C130.631 495.96 132.221 499.64 134.091 503.15C151.221 535.31 170.721 574.01 189.811 604.43C192.861 609.3 195.411 612.43 201.611 613.12L201.601 613.13ZM493.471 699.26C491.261 695.65 475.341 698.14 469.171 690.08C446.551 650.7 428.261 606.08 404.781 567.47C401.711 562.42 397.021 556.46 396.021 566.14L440.781 650.46C443.471 652.67 442.451 659.6 442.721 660.03C442.841 660.23 445.071 660.8 446.461 662.78C453.271 672.53 460.791 697.01 469.891 702.35C475.741 705.78 498.451 707.41 493.461 699.26H493.471ZM199.611 620.14C197.591 622.18 207.851 629.98 201.131 636.16C199.811 637.38 197.621 637.7 196.611 638.63C191.201 643.63 207.441 647.9 210.161 639.19C212.281 632.39 208.821 618.63 199.621 620.14H199.611Z" fill="#3F5F48"/>
</g>
<defs>
<clipPath id="clip0_830_984">
<rect width="553.74" height="815.86" fill="white"/>
</clipPath>
</defs>
</svg>
