<svg width="576" height="619" viewBox="0 0 576 619" fill="none" xmlns="http://www.w3.org/2000/svg">
<path d="M115.712 567.684C108.522 582.644 98.9624 585.854 83.9524 578.794C68.0924 571.334 55.4824 559.754 44.3424 546.524C22.4024 520.444 10.3924 489.874 4.68241 456.634C-6.21759 393.184 2.41241 331.824 25.3724 272.214C50.4324 207.114 91.1724 152.994 142.672 106.544C182.092 70.9836 225.592 41.7436 274.832 21.5036C307.462 8.09359 341.142 -0.846406 376.802 0.0635939C392.082 0.453594 406.962 3.08359 420.822 10.0236C435.072 17.1636 445.952 27.4036 451.152 42.8936C451.462 43.8136 451.962 44.6636 452.582 44.1636C460.332 44.1636 468.182 43.3836 475.822 44.3236C491.842 46.3136 504.722 55.0336 516.232 65.7436C538.252 86.2336 552.212 111.764 561.672 139.974C573.732 175.914 576.942 212.994 574.082 250.514C566.702 347.514 527.792 430.294 459.472 499.214C412.022 547.074 356.502 582.444 292.332 603.584C257.512 615.054 221.872 621.224 185.052 616.544C167.812 614.354 151.582 609.204 137.472 598.504C127.202 590.714 120.522 580.374 115.722 567.674L115.712 567.684ZM160.812 602.964C160.752 603.204 160.682 603.454 160.622 603.694C162.082 604.244 163.512 604.864 165.002 605.314C181.942 610.454 199.312 611.944 216.902 611.184C255.442 609.514 291.752 598.814 326.602 583.024C402.122 548.804 463.202 497.324 508.182 427.554C550.062 362.604 570.272 291.254 567.772 213.824C566.502 174.594 557.792 137.204 537.422 103.194C525.532 83.3336 510.752 66.1336 489.602 55.4636C479.382 50.3036 468.622 49.2536 457.492 51.8036C455.362 52.2936 453.322 52.6236 453.482 55.7636C454.852 83.0736 442.542 105.044 425.632 124.894C417.002 135.024 407.552 144.484 398.082 153.854C382.662 169.124 368.442 185.374 361.382 206.184C356.642 220.144 353.232 234.684 350.652 249.214C342.322 296.184 322.282 336.694 286.832 369.134C268.422 385.984 247.702 399.624 226.532 412.654C203.972 426.544 181.022 439.884 161.242 457.774C136.402 480.244 120.852 507.374 118.782 541.514C118.312 549.274 120.292 555.114 127.382 558.234C137.542 562.694 147.942 566.624 158.272 570.714C163.832 572.914 169.652 574.554 174.982 577.204C181.542 580.474 184.362 585.744 183.402 591.174C182.232 597.824 177.252 600.354 171.432 601.604C167.952 602.354 164.352 602.524 160.802 602.954L160.812 602.964ZM5.64241 403.664C7.57241 421.364 8.61241 439.214 11.6324 456.724C18.2124 494.934 33.6424 528.944 62.7324 555.634C71.9524 564.094 81.5024 572.424 94.3024 574.864C97.5224 575.474 101.792 574.654 104.542 572.884C110.902 568.804 112.282 555.494 108.372 548.964C105.322 543.874 102.472 538.424 100.812 532.764C93.9224 509.324 98.6124 486.914 108.132 465.194C120.622 436.694 140.772 414.114 165.022 395.384C185.162 379.814 206.292 365.494 227.302 351.084C263.652 326.154 289.702 293.454 303.972 251.574C312.902 225.374 325.682 201.264 342.162 178.924C351.522 166.224 359.542 152.494 367.702 138.954C376.122 124.974 383.542 110.384 392.192 96.5636C404.782 76.4536 420.952 59.8836 442.882 49.7736C445.592 48.5236 445.542 47.0236 444.712 44.6436C441.282 34.8436 435.132 27.1936 426.622 21.3836C407.162 8.09359 385.142 5.72359 362.492 6.97359C332.202 8.64359 303.282 16.4936 275.622 28.5836C191.452 65.3736 123.732 122.354 72.0624 197.994C29.8424 259.794 7.58241 328.374 5.64241 403.664ZM446.822 55.5836C444.472 56.6836 442.702 57.2136 441.272 58.2236C433.942 63.3936 426.222 68.1436 419.542 74.0636C407.452 84.7636 398.502 98.0936 390.552 112.044C376.292 137.074 363.312 162.854 345.792 185.914C331.892 204.204 321.142 224.224 313.372 245.884C309.612 256.374 305.442 266.744 300.862 276.904C284.782 312.544 257.862 338.514 226.242 360.404C205.442 374.804 184.482 389.104 164.702 404.834C142.322 422.644 124.062 444.294 112.992 471.154C105.492 489.344 101.702 508.114 106.422 527.744C107.462 532.064 109.322 536.174 110.802 540.384C111.262 540.274 111.722 540.154 112.182 540.044C112.282 539.454 112.442 538.864 112.482 538.264C114.712 505.884 128.622 478.864 152.142 457.274C165.562 444.954 180.592 434.224 195.662 423.894C215.982 409.964 237.442 397.694 257.682 383.644C289.192 361.764 313.902 333.864 329.332 298.254C337.622 279.124 342.222 259.054 345.562 238.644C350.682 207.384 362.912 179.654 385.532 156.994C391.892 150.624 398.242 144.254 404.592 137.884C417.222 125.214 428.882 111.774 437.352 95.8636C443.872 83.6136 447.822 70.7336 446.822 55.5736V55.5836ZM122.442 563.254C124.682 577.494 139.372 591.894 155.022 594.654C160.672 595.654 166.922 595.194 172.542 593.874C178.362 592.494 178.782 588.124 173.972 584.564C171.612 582.814 168.862 581.434 166.092 580.414C151.542 575.054 135.942 572.524 122.442 563.254Z" fill="#3F5F48"/>
</svg>
