<svg width="747" height="812" viewBox="0 0 747 812" fill="none" xmlns="http://www.w3.org/2000/svg">
<path d="M179.54 624.75C173.61 610.96 167.66 597.79 162.26 584.41C145.51 542.87 133.78 499.94 128.09 455.48C126.79 445.29 126.33 434.88 126.71 424.61C127.07 414.82 132.47 407.12 140.36 401.31C153.61 391.57 168.86 386.24 184.47 381.95C226.13 370.5 268.82 366.1 311.82 364.18C316.9 363.95 321.01 362.9 324.77 359.22C333.1 351.08 341.8 343.33 350.31 335.37C351.83 333.95 353.12 332.28 355.53 329.6C351.4 329.84 348.69 329.97 345.98 330.15C337.22 330.71 328.67 329.93 320.65 326.01C305.56 318.63 299.45 303.77 304.94 287.91C313.5 263.2 344.99 243.33 371.04 246.2C387.02 247.96 394.13 257.56 391.38 273.46C388.74 288.72 381.59 302 373.39 314.83C372.6 316.07 371.76 317.27 370.6 319C371.7 319 372.32 319.17 372.77 318.98C393.45 310.1 410.21 296.56 420.9 276.54C436.78 246.81 430.73 218.72 402.69 198.27C388.67 188.05 372.71 180.47 357.47 171.97C345.85 165.49 333.55 160.15 322.32 153.08C293.56 134.96 284 108.86 294.09 76.4402C302.8 48.4402 319.49 25.9403 344.14 9.99029C351.25 5.39029 359.88 3.12012 367.93 0.0701222C368.95 -0.319878 370.61 1.0201 371.98 1.5501C371.08 2.6801 370.36 4.59013 369.27 4.83013C351.93 8.64013 338.38 18.6101 326.7 31.3001C310.72 48.6701 299.07 68.3701 296.04 92.3001C293.41 113.12 300.47 130.51 317.2 142.63C329.37 151.45 343.18 158.02 356.34 165.47C372.1 174.39 388.25 182.68 403.63 192.2C413.58 198.36 421.48 207.21 427.14 217.65C438.42 238.44 436.41 259.15 425.45 279.19C413.28 301.44 394.56 316.41 370.84 325.05C366.11 326.77 362.54 329.34 359.28 333.11C350.26 343.55 340.87 353.67 331.63 363.92C331.01 363.66 330.38 363.41 329.76 363.15C331.77 363.15 333.79 363.17 335.8 363.15C376.13 362.59 416.39 363.71 456.49 368.27C485.31 371.55 514.02 375.82 541.49 385.49C552.54 389.38 563.08 394.95 573.46 400.49C580.04 404 583.61 410.41 587.23 417.05C592.54 426.79 590.62 436.72 590.6 446.7C590.6 450.34 590.17 453.97 589.94 457.61L591.32 458.74C592.98 456.67 594.53 454.5 596.32 452.54C615.16 431.93 636.72 415.17 664 407.45C683.73 401.86 703.38 402 721.18 413.92C741.08 427.25 747.47 447.16 746.16 469.94C744.5 498.81 732.16 523.02 712.17 543.55C697.39 558.73 679.64 569.91 661.8 580.99C646.25 590.65 630.67 600.26 615.48 610.47C609.76 614.32 604.9 619.56 600.06 624.56C596.15 628.6 598.33 634.13 603.97 635.03C627.23 638.75 649.98 644.3 671.61 653.82C684.14 659.34 696.12 665.82 706.38 675.11C724.88 691.85 725.65 711.64 708.17 729.47C695.82 742.07 680.39 750.06 664.58 757.2C614 780.04 560.77 793.75 506.13 802.49C450.15 811.44 393.88 813.2 337.33 809.83C271.14 805.88 205.96 795.73 141.78 779.25C108.68 770.75 75.99 760.76 45.79 744.37C34.76 738.39 24.0501 731.27 14.5801 723.06C-5.40993 705.72 -4.62997 683.89 15.6 666.65C28.44 655.71 43.36 648.35 59.04 642.53C87.76 631.87 117.25 624.51 147.99 623.39C156.93 623.06 165.92 624.02 174.89 624.4C176.31 624.46 177.73 624.6 179.55 624.73L179.54 624.75ZM131.95 435.18C131.73 436.56 131.5 437.19 131.55 437.78C132.26 445.06 132.75 452.38 133.79 459.62C142.05 516.93 159.81 571.29 185.12 623.25C186.06 625.19 188.33 627.1 190.38 627.78C209.17 634.01 222.45 646.33 229.06 664.73C233.3 676.54 235.31 689.15 238.48 701.36C239.03 703.46 240 705.8 241.52 707.24C255.74 720.75 273.04 728.07 292.08 731.57C330.86 738.69 367.52 731.17 402.95 715.29C428.01 704.06 450.52 688.68 473.09 673.28C486.54 664.11 500.57 655.77 514.64 647.57C518.32 645.43 520.79 643.14 522.63 639.35C538.95 605.75 551.56 570.68 564.26 535.63C573.97 508.84 586.56 483.6 606.32 462.61C620.02 448.06 635.71 436.59 655.8 432.37C681.71 426.93 703.86 440.6 708.66 465.23C710.91 476.77 709.71 488.06 705.45 499.06C700.17 512.7 692.02 524.51 681.08 533.95C665.59 547.31 649.41 559.86 633.45 572.68C622.75 581.28 612.76 590.56 605.39 602.24C602.71 606.49 600.82 611.25 598.56 615.78C598.95 616.04 599.33 616.29 599.72 616.55C602.33 614.36 604.75 611.89 607.58 610.03C625.51 598.26 643.44 586.48 661.55 574.99C682.84 561.5 704.08 547.93 719.17 527.1C735.11 505.1 744.47 481 740.27 453.25C736.99 431.59 722.23 416.1 700.99 410.94C685.79 407.25 671.14 409.48 656.98 415.15C629.32 426.22 607.77 445.22 589.73 468.49C588.37 470.24 587.83 472.66 587.07 474.82C585.21 480.15 583.66 485.61 581.54 490.83C580.65 493.03 578.88 495.1 577.01 496.6C575.82 497.56 573.45 498.01 572.08 497.48C571.07 497.09 570.28 494.71 570.36 493.28C570.48 491.03 571.05 488.62 572.09 486.63C574.31 482.36 577.25 478.45 579.36 474.14C581.5 469.75 583.74 465.18 584.61 460.45C585.84 453.78 585.88 446.88 586.35 440.08C586.43 438.89 586.11 437.68 586.04 437.03C581.58 442.24 577.58 447.95 572.56 452.55C561.49 462.67 547.75 467.9 533.55 471.88C498.48 481.71 462.43 484.05 426.29 485.33C377.47 487.06 328.74 485.45 280.15 480.39C249 477.14 218.03 472.59 187.89 463.78C167.76 457.89 147.67 451.65 131.9 435.19L131.95 435.18ZM585.45 639.3C584.29 639.02 583.52 638.7 582.73 638.66C563.16 637.67 544.2 640.56 526.06 648.06C524.31 648.79 522.74 650.73 521.78 652.49C505.74 682.03 487.63 710.01 463.23 733.54C451.55 744.8 438.01 751.46 421.84 753.67C375.79 759.97 329.58 760.76 283.28 758.06C273.85 757.51 264.41 756.08 255.14 754.21C244.91 752.15 239.05 745.23 237.47 734.95C236.26 727.06 235.47 719.1 234.32 711.19C234.05 709.32 233.52 707.11 232.3 705.83C212.54 685.09 198.53 660.53 185.37 635.41C183.71 632.24 181.76 630.74 178.3 630.17C158.82 626.93 139.48 628.23 120.17 631.6C90.99 636.69 62.6901 644.48 36.4601 658.65C27.0301 663.75 18.1601 669.68 11.5701 678.33C3.00006 689.58 2.73008 701.33 11.7101 712.2C16.7301 718.28 22.73 723.86 29.18 728.39C54.58 746.21 83.4801 756.58 112.82 765.54C180.95 786.36 250.79 798.07 321.71 803.7C419.88 811.49 516.29 802.69 610.36 772.6C637.2 764.01 663.51 754.07 687.58 739.07C696.81 733.32 705.41 726.73 711.15 717.18C717.27 706.99 716.9 697.03 710.03 687.25C703.63 678.14 694.8 671.92 685.36 666.55C664.31 654.59 641.48 647.5 617.89 642.62C615.08 642.04 612.21 641.77 609.37 641.36C616.42 647.18 624.55 648.6 633.13 648.66C634.76 648.67 636.39 649.58 638.02 650.08C637.3 651.83 637 653.98 635.79 655.25C630.2 661.1 623.67 665.59 615.79 667.95C598.28 673.19 583.28 662.6 584.44 645.72C584.57 643.76 585.04 641.82 585.45 639.3ZM311.77 369.33C310.54 369.33 309.44 369.23 308.36 369.34C280.89 372.22 253.34 374.51 225.99 378.23C204.55 381.15 183.31 385.89 163.4 394.73C155.13 398.4 147.03 403.08 139.98 408.71C130.15 416.56 130.62 427.37 139.99 435.69C142.35 437.78 144.72 440.12 147.51 441.43C158.32 446.5 168.97 452.24 180.28 455.85C222.24 469.27 265.71 474.46 309.45 477.66C349.5 480.59 389.63 482.03 429.73 479.84C454.96 478.46 480.18 475.94 505.25 472.75C524.61 470.29 543.43 465.08 560.54 455.03C569.24 449.92 576.17 443.14 580.36 433.88C584.92 423.81 582.97 414.91 574.5 407.87C570.81 404.81 566.89 401.62 562.52 399.85C549.91 394.73 537.31 389.14 524.19 385.78C463.52 370.27 401.51 367.61 339.27 368.27C319.42 368.48 319.09 368.69 306.19 384.18C301.77 389.49 298.48 396.25 296.44 402.89C294.16 410.3 295.67 411.22 303.34 410.45C339.67 406.81 376.07 405.11 412.57 406.79C438.88 408 465.15 409.89 490.43 417.99C496.83 420.04 503.14 423.1 508.7 426.88C517.51 432.87 517.6 442.23 509.37 449.07C506.08 451.8 502.26 454.04 498.39 455.88C478.55 465.28 457.19 468.96 435.68 471.55C401.86 475.62 367.9 475.78 333.95 473.46C301.36 471.23 268.89 467.79 237.41 458.6C229.27 456.22 221.32 452.3 214.15 447.73C208.25 443.97 208.54 436.94 213.97 432.39C217.22 429.67 221.09 427.13 225.1 425.99C238.2 422.27 251.44 418.97 264.74 416.01C273.3 414.1 282.04 413.05 291.01 411.57C290.22 403.08 291.65 395.21 296.4 388.5C301.04 381.94 306.44 375.92 311.78 369.32L311.77 369.33ZM528.45 641.2C529.42 640.97 530.2 640.86 530.93 640.6C547.02 635.01 563.59 632.9 580.57 633.58C587.4 633.85 591.71 630.43 592.4 623.58C593.63 611.33 598.45 600.52 606.71 591.8C616.17 581.81 626.45 572.54 636.91 563.58C649.54 552.76 663.2 543.1 675.58 532.02C690.65 518.53 701.66 502.31 704.5 481.53C708.34 453.4 687.03 432.49 659.06 437.09C642.83 439.76 629.54 448.08 617.66 458.86C600.11 474.79 587.23 494.2 578.12 515.88C569.94 535.34 563.21 555.41 555.44 575.05C546.76 596.99 537.63 618.76 528.45 641.2ZM297.62 416.11C298.94 418.48 299.55 419.84 300.39 421.05C307.67 431.61 318.37 437.09 330.13 440.9C343.92 445.36 358.05 446.89 372.51 445.57C373.88 445.45 375.4 446.93 376.85 447.66C375.78 448.63 374.77 450.37 373.62 450.47C353.01 452.18 333.03 449.89 314.54 439.86C305.64 435.03 297.84 428.96 293.48 419.29C292.97 418.15 290.3 417.22 288.8 417.43C278.74 418.8 268.57 419.84 258.74 422.25C246.03 425.36 233.33 428.92 221.15 433.64C212.82 436.87 212.88 442.75 221 446.56C229.37 450.48 238.19 454.22 247.21 455.85C271.57 460.27 296.05 464.39 320.66 467.05C362.34 471.56 404.1 470.97 445.65 464.8C462.79 462.25 479.84 459.04 495.66 451.59C499.93 449.58 503.99 446.67 507.41 443.41C511.39 439.61 511.24 435.67 506.99 432.2C503.32 429.21 499.07 426.3 494.61 425.03C482 421.47 469.28 417.84 456.35 415.9C414.99 409.69 373.37 410.4 331.76 413.06C320.7 413.77 309.67 415.02 297.62 416.11ZM239.41 713.41C240.79 722.18 241.65 729.9 243.3 737.45C244.56 743.2 248.65 747.11 254.38 748.59C259.84 750 265.41 751.26 271.01 751.78C319.6 756.31 368.06 754.59 416.53 749.35C436.02 747.24 451.35 738.91 464.68 724.95C484.41 704.29 499.77 680.65 514 656.14C514.36 655.53 514.37 654.72 514.84 652.81C509.56 655.82 505.12 658.02 501.02 660.74C489.51 668.36 478.05 676.08 466.72 683.97C439.29 703.06 410.84 720.31 378.62 730.08C330.55 744.66 283.87 745.3 239.41 713.42V713.41ZM342.58 325.72C348.22 324.98 353.01 324.46 357.75 323.65C359.29 323.39 361.18 322.71 362.07 321.56C374.09 306.01 383.85 289.31 386.87 269.49C388.22 260.66 384.5 255.22 375.95 252.49C368.36 250.07 360.78 250.73 353.34 252.87C333.69 258.52 318.01 269.37 310.18 288.88C304.07 304.12 311.4 318.33 327.18 323.02C332.38 324.56 337.93 324.93 342.59 325.72H342.58ZM190.82 634.28C199.24 654.17 225.4 693.38 232.1 696.35C229.31 665.08 211.37 637.83 190.82 634.28ZM629.07 653.98C617.3 652.66 606.98 648.97 598.35 640.73C596.68 639.13 592.18 637.25 590.34 641.51C586.36 650.73 592.64 662.15 602.64 663.8C613.07 665.52 621.6 661.27 629.07 653.98Z" fill="#3F5F48"/>
</svg>
